<?xml version="1.0" encoding="UTF-8"?>
<svg width="40px" height="40px" viewBox="0 0 40 40" version="1.1" xmlns="http://www.w3.org/2000/svg" xmlns:xlink="http://www.w3.org/1999/xlink">
    <!-- Generator: Sketch 41 (35326) - http://www.bohemiancoding.com/sketch -->
    <title>Flat_copy</title>
    <desc>Created with Sketch.</desc>
    <defs></defs>
    <g id="Page-1" stroke="none" stroke-width="1" fill="none" fill-rule="evenodd">
        <g id="Flat_copy">
            <path d="M20,0 C8.95375,0 0,8.95375 0,20 C0,31.045 8.95375,40 20,40 C31.04625,40 40,31.045 40,20 C40,8.95375 31.04625,0 20,0 L20,0 Z" id="Shape" fill="#AAAAAA"></path>
            <g id="Group" transform="translate(8.750000, 8.750000)" fill="#F2F2F2">
                <path d="M11.2566886,0.00267804878 C12.8105482,0.00267804878 14.3645175,-0.00452195122 15.9183333,0.00474146341 C17.3802193,0.0134780488 18.7531798,0.347180488 19.9427851,1.23675366 C21.4962939,2.39847805 22.2912719,3.98535366 22.4392325,5.90018049 C22.4913377,6.57408293 22.4751316,7.25384634 22.4760088,7.93093171 C22.4795395,10.5567146 22.4775877,13.1825195 22.4773026,15.8083463 C22.477193,16.8807951 22.3282018,17.9278902 21.8748246,18.908561 C20.9551316,20.8978463 19.3508991,21.9853537 17.2342982,22.3622341 C16.7929605,22.4407976 16.3376754,22.4701463 15.8887061,22.4714854 C12.7892982,22.480639 9.68982456,22.4785317 6.59039474,22.4753049 C4.97866228,22.4736585 3.50458333,22.0476293 2.24842105,21.0009293 C0.972171053,19.9376341 0.29870614,18.5469366 0.0892105263,16.9164439 C0.0530701754,16.6352268 0.0309429825,16.3499927 0.0306798246,16.0666244 C0.0276535088,12.8052878 0.00798245614,9.54375366 0.0399122807,6.28274634 C0.0573684211,4.50105366 0.65004386,2.9213561 1.97508772,1.6766122 C3.0741886,0.644202439 4.41017544,0.10475122 5.89480263,0.0519585366 C7.67997807,-0.0115243902 9.46916667,0.0369219512 11.2566228,0.0369219512 C11.2566447,0.0254853659 11.2566447,0.0140707317 11.2566886,0.00267804878 L11.2566886,0.00267804878 Z M11.2391447,20.4007829 C12.7343202,20.4007829 14.2294518,20.4067976 15.7245395,20.3966561 C16.1155482,20.394 16.5122368,20.3745512 16.8958991,20.3050976 C18.3614035,20.0399049 19.4755921,19.304122 20.0594956,17.8757561 C20.3561623,17.1501585 20.4530482,16.3715707 20.4656798,15.6175024 C20.5147368,12.6920415 20.4870833,9.76526341 20.4836404,6.83896829 C20.4832456,6.52194878 20.4798246,6.20139512 20.4350219,5.88859024 C20.2340789,4.48397561 19.6257456,3.3327 18.3343202,2.6325878 C17.6135088,2.24183415 16.8310088,2.0943 16.0176535,2.09403659 C12.8853947,2.09311463 9.75313596,2.09219268 6.62089912,2.09594634 C6.33782895,2.09629756 6.05225877,2.11197073 5.77217105,2.15137317 C4.17686404,2.37558293 3.00179825,3.16257805 2.41372807,4.71088537 C2.17640351,5.33568293 2.10057018,5.99037805 2.1004386,6.65508293 C2.09997807,9.71514878 2.09703947,12.7751488 2.10445175,15.8352585 C2.10535088,16.2096366 2.13324561,16.5893927 2.20019737,16.9572732 C2.49719298,18.5894561 3.40642544,19.7112951 5.02570175,20.1623927 C5.56530702,20.3126488 6.14212719,20.3790073 6.70381579,20.3903341 C8.21508772,20.4207146 9.72730263,20.4006732 11.2391447,20.4007829 L11.2391447,20.4007829 Z" id="Shape"></path>
                <path d="M17.0373465,11.203222 C17.035943,14.4032049 14.4275877,17.005961 11.2298684,16.9981463 C8.03094298,16.9903976 5.45475877,14.4057951 5.45289474,11.2023878 C5.4510307,8.00253659 8.05550439,5.39956098 11.2555921,5.40305122 C14.4280921,5.40647561 17.0387719,8.02547561 17.0373465,11.203222 L17.0373465,11.203222 Z M11.2473246,14.9090049 C13.2869518,14.9105634 14.9668202,13.2302854 14.9632895,11.1921146 C14.9597588,9.16808049 13.2841667,7.48769268 11.2611404,7.47946098 C9.22445175,7.47118537 7.54539474,9.14632683 7.54107456,11.1908415 C7.53677632,13.2382756 9.20048246,14.9073805 11.2473246,14.9090049 L11.2473246,14.9090049 Z" id="Shape"></path>
                <path d="M16.8258693,5.70487136 C16.3405095,5.7005361 15.9579132,5.31224436 15.9594714,4.8255938 C15.9610001,4.33341762 16.3531951,3.94752129 16.8483594,3.95090132 C17.328207,3.95422256 17.7192407,4.35015611 17.7177855,4.83123697 C17.7163155,5.31913668 17.3180203,5.70926539 16.8258693,5.70487136 L16.8258693,5.70487136 Z" id="Shape"></path>
            </g>
        </g>
    </g>
</svg>