<?xml version="1.0" encoding="UTF-8"?>
<svg width="40px" height="40px" viewBox="0 0 40 40" version="1.1" xmlns="http://www.w3.org/2000/svg" xmlns:xlink="http://www.w3.org/1999/xlink">
    <!-- Generator: Sketch 41 (35326) - http://www.bohemiancoding.com/sketch -->
    <title>Group 4</title>
    <desc>Created with Sketch.</desc>
    <defs></defs>
    <g id="Page-1" stroke="none" stroke-width="1" fill="none" fill-rule="evenodd">
        <g id="Desktop-HD-Copy-5" transform="translate(-950.000000, -1232.000000)">
            <g id="Group-4" transform="translate(950.000000, 1232.000000)">
                <path d="M0,20 C0,31.045 8.95375,40 20,40 C31.04625,40 40,31.045 40,20 C40,8.95375 31.04625,0 20,0 C8.95375,0 0,8.95375 0,20 Z" id="Shape-Copy" fill="#1F6A64"></path>
                <g id="1475707326_packet" transform="translate(8.750000, 11.250000)" fill="#F2F2F2">
                    <g id="packet">
                        <path d="M22.5,2.0544403 C22.5,0.919800995 21.5160142,0 20.3021984,0 L2.1978016,0 C0.983985807,0 0,0.919800995 0,2.0544403 L0,15.4455597 C0,16.580199 0.983985807,17.5 2.1978016,17.5 L20.3021984,17.5 C21.5160142,17.5 22.5,16.580199 22.5,15.4455597 L22.5,2.0544403 L22.5,2.0544403 Z M2.20957717,1.64179104 L20.3194426,1.64179104 C20.5618199,1.64179104 20.7569486,1.82248756 20.7569486,2.0490796 L20.7569486,2.06690299 L11.5748729,10.6509577 C11.4628785,10.7556468 11.332602,10.7712935 11.2646097,10.7712935 C11.1966174,10.7712935 11.0659018,10.7556468 10.9538808,10.6509577 L1.76966292,2.06573383 L1.76966292,2.0490796 C1.76966292,1.82248756 1.96719988,1.64179104 2.20957717,1.64179104 L2.20957717,1.64179104 Z M20.3194426,15.858209 L2.20957717,15.858209 C1.96719988,15.858209 1.76966292,15.670597 1.76966292,15.4440174 L1.76966292,4.39006219 L9.71087226,11.8131468 C10.1259846,12.2011692 10.6779864,12.4148383 11.2650222,12.4148383 C11.8521378,12.414801 12.4030352,12.2010821 12.8181209,11.8130721 L20.7569486,4.39121891 L20.7569486,15.4440174 C20.7569486,15.670597 20.5618199,15.858209 20.3194426,15.858209 L20.3194426,15.858209 Z" id="Shape"></path>
                    </g>
                </g>
            </g>
        </g>
    </g>
</svg>