<?xml version="1.0" encoding="UTF-8"?>
<svg width="40px" height="40px" viewBox="0 0 40 40" version="1.1" xmlns="http://www.w3.org/2000/svg" xmlns:xlink="http://www.w3.org/1999/xlink">
    <!-- Generator: Sketch 41 (35326) - http://www.bohemiancoding.com/sketch -->
    <title>Group 7</title>
    <desc>Created with Sketch.</desc>
    <defs></defs>
    <g id="Page-1" stroke="none" stroke-width="1" fill="none" fill-rule="evenodd">
        <g id="Group-7">
            <path d="M20,0 C8.954375,0 0,8.954375 0,20 C0,31.045625 8.954375,40 20,40 C31.045625,40 40,31.045625 40,20 C40,8.954375 31.045625,0 20,0 L20,0 Z" id="Shape" fill="#AAAAAA"></path>
            <g id="Outline_Filled_1_" transform="translate(7.500000, 8.125000)" fill="#FFFFFF">
                <path d="M12.651875,22.396875 C12.590625,22.396875 12.530625,22.395625 12.47,22.391875 L12.47,22.391875 C12.431875,22.394375 12.39125,22.396875 12.351875,22.396875 C10.945,22.396875 10.040625,21.75875 9.1675,21.14125 C8.56375,20.715 7.995,20.3125 7.325,20.201875 C6.9975,20.146875 6.671875,20.120625 6.3575,20.120625 C5.790625,20.120625 5.3425,20.20875 5.016875,20.271875 C4.818125,20.31125 4.6475,20.344375 4.51625,20.344375 C4.38,20.344375 4.23375,20.315 4.16875,20.09625 C4.1125,19.90625 4.073125,19.723125 4.03375,19.54625 C3.934375,19.089375 3.863125,18.8075 3.671875,18.77875 C1.44,18.43375 0.800625,17.96375 0.658125,17.63 C0.6375,17.583125 0.62625,17.534375 0.62375,17.4875 C0.61625,17.35875 0.7075,17.246875 0.83375,17.225 C4.265,16.659375 5.803125,13.153125 5.866875,13.004375 C5.868125,13.000625 5.870625,12.996875 5.871875,12.991875 C6.081875,12.566875 6.1225,12.1975 5.994375,11.894375 C5.75875,11.339375 4.99125,11.09625 4.483125,10.934375 C4.358125,10.895 4.24125,10.858125 4.148125,10.82125 C3.133125,10.42 3.049375,10.00875 3.08875,9.79875 C3.15625,9.44125 3.635,9.1925 4.020625,9.1925 C4.12625,9.1925 4.219375,9.211875 4.298125,9.24875 C4.75375,9.4625 5.165,9.570625 5.520625,9.570625 C6.010625,9.570625 6.225,9.364375 6.25125,9.3375 C6.23875,9.105625 6.223125,8.8625 6.208125,8.613125 C6.10625,6.99125 5.97875,4.975625 6.491875,3.824375 C8.03,0.375 11.291875,0.1075 12.254375,0.1075 C12.27875,0.1075 12.676875,0.10375 12.676875,0.10375 L12.734375,0.10375 C13.699375,0.10375 16.968125,0.3725 18.5075,3.823125 C19.020625,4.974375 18.893125,6.99125 18.79125,8.611875 L18.7875,8.681875 C18.77375,8.9075 18.759375,9.1275 18.748125,9.3375 C18.7725,9.363125 18.969375,9.55125 19.41375,9.569375 L19.41375,9.569375 C19.75125,9.556875 20.139375,9.448125 20.56625,9.25 C20.69125,9.19125 20.83,9.18 20.92375,9.18 C21.0675,9.18 21.21375,9.208125 21.335,9.25875 L21.3425,9.26125 C21.6875,9.38375 21.913125,9.625625 21.918125,9.8775 C21.923125,10.115625 21.74125,10.471875 20.85125,10.82375 C20.759375,10.859375 20.64125,10.8975 20.51625,10.936875 C20.006875,11.09875 19.239375,11.341875 19.005,11.896875 C18.87625,12.2 18.916875,12.569375 19.1275,12.994375 C19.12875,12.998125 19.13125,13.001875 19.1325,13.006875 C19.19625,13.155625 20.733125,16.66125 24.165625,17.22625 C24.293125,17.246875 24.383125,17.36 24.375625,17.48875 C24.373125,17.536875 24.361875,17.585625 24.34,17.6325 C24.19875,17.96375 23.559375,18.433125 21.3275,18.778125 C21.145625,18.80625 21.074375,19.044375 20.965625,19.541875 C20.92625,19.7225 20.885625,19.900625 20.830625,20.089375 C20.78375,20.2525 20.681875,20.3275 20.51125,20.3275 L20.483125,20.3275 C20.365,20.3275 20.196875,20.305625 19.98375,20.265 C19.605625,20.19125 19.181875,20.1225 18.643125,20.1225 C18.32875,20.1225 18.0025,20.150625 17.675625,20.20375 C17.005625,20.315625 16.436875,20.716875 15.834375,21.141875 C14.963125,21.7575 14.059375,22.396875 12.651875,22.396875 L12.651875,22.396875 Z" id="Shape"></path>
            </g>
        </g>
    </g>
</svg>